<svg width="45" height="40" viewBox="0 0 45 40" fill="none" xmlns="http://www.w3.org/2000/svg">
<path d="M26.5652 9.47976C27.2178 9.002 27.2771 8.15265 26.7431 7.6218C26.2091 7.03788 25.2599 6.9848 24.6666 7.46256L15.4111 14.4697V1.72945C15.4111 0.986272 14.7585 0.402344 13.9278 0.402344C13.0972 0.402344 12.4446 0.986272 12.4446 1.72945V14.3635L3.24845 6.87864C2.65515 6.40088 1.70587 6.40089 1.1719 6.98482C0.637925 7.51566 0.637969 8.36501 1.2906 8.84277L12.5039 17.9202V37.5083C12.5039 38.2515 13.1565 38.8354 13.9872 38.8354C14.8178 38.8354 15.4704 38.2515 15.4704 37.5083V17.9733L26.5652 9.47976Z" fill="white" fill-opacity="0.59"/>
<path d="M44.6044 37.0841L35.8236 25.1401L44.6044 13.9924C45.0791 13.4085 44.901 12.5591 44.2484 12.1345C43.5958 11.7098 42.6465 11.8691 42.1718 12.453L34.5776 22.1144L26.9241 11.7629C26.4494 11.1259 25.5595 10.9666 24.8475 11.3913C24.1355 11.816 23.9576 12.6123 24.4322 13.2493L33.213 25.1932L24.4322 36.341C23.9576 36.9249 24.1356 37.7742 24.7882 38.1989C25.4408 38.6236 26.3901 38.4643 26.8647 37.8804L34.4589 28.2191L42.1125 38.5705C42.4092 38.9421 42.8838 39.1544 43.3584 39.1544C43.6551 39.1544 43.8924 39.1013 44.1891 38.9421C44.901 38.5174 45.0791 37.7211 44.6044 37.0841Z" fill="white" fill-opacity="0.59"/>
</svg>
