<svg width="45" height="40" viewBox="0 0 45 40" fill="none" xmlns="http://www.w3.org/2000/svg">
<path d="M37.2874 1.4357C36.4373 0.687383 35.3443 0.259766 34.1906 0.259766C33.0369 0.259766 31.944 0.687383 31.0939 1.4357C22.2894 9.23959 13.5456 17.0435 4.74115 24.8474C4.49827 25.0612 4.31609 25.3819 4.19465 25.6491C3.52672 27.5734 2.91953 29.5511 2.31233 31.4753C1.948 32.5444 1.64443 33.6134 1.28011 34.6824C1.03723 35.3773 0.855079 36.0187 0.612197 36.7136L0.308594 37.6757V38.3171L1.15862 39.012H1.76583L1.94802 38.9585C2.00874 38.9051 2.1302 38.9051 2.19092 38.8516L5.53055 37.9964C8.80946 37.1946 12.0883 36.3394 15.428 35.4842C15.7923 35.3773 16.1567 35.2169 16.3995 35.0031C24.1718 28.2148 32.369 21.0523 42.9951 11.7518C43.3594 11.4311 43.6023 11.1638 43.7845 10.8966C44.8167 9.3465 44.5131 7.63604 43.0558 6.29976C41.052 4.74967 39.1697 3.09269 37.2874 1.4357ZM15.3672 29.8718C14.9422 29.7114 14.5172 29.4976 14.0921 29.3373C13.91 29.2304 13.7278 29.1769 13.5456 29.07C13.4849 29.07 13.4242 29.0166 13.3635 29.0166L32.1261 12.5001L35.5265 15.4934L16.4602 32.1168V32.0633C16.4602 31.8495 16.4602 31.6891 16.4602 31.5288C16.5817 30.6736 16.2173 30.1391 15.3672 29.8718ZM11.6633 27.4665C11.6026 27.3596 11.5418 27.2527 11.4811 27.1458C11.1168 26.5578 10.8132 25.9698 10.4489 25.3819C10.206 24.9543 9.84168 24.7405 9.29519 24.7405C9.29519 24.7405 9.29521 24.7405 9.23449 24.7405C8.93088 24.7405 8.6273 24.7405 8.26297 24.7405H8.08078L26.9649 8.0102L30.3653 11.0035L11.6633 27.4665ZM10.206 29.4442C10.4489 29.8184 10.6917 30.0856 11.1775 30.2994C11.6633 30.5132 12.1491 30.727 12.6348 30.9408C13.1206 31.1546 13.5457 31.3684 14.0314 31.5288C14.2136 31.6357 14.2743 31.6892 14.2743 31.8495C14.2743 32.4909 14.2743 33.0789 14.2743 33.5599C14.2743 33.7203 14.2743 33.7203 14.0921 33.7737C13.4849 33.9341 12.8777 34.0944 12.2705 34.2013C11.4811 34.4151 10.6918 34.629 9.84169 34.7893C9.78097 34.7893 9.59881 34.7893 9.53809 34.7359C8.20224 33.5599 6.74491 32.2771 5.10546 30.8339C5.04474 30.7805 4.98405 30.6736 4.98405 30.6201C5.34837 29.4976 5.71272 28.3217 6.07705 27.1992L6.25916 26.7182H6.74496C7.29144 26.7182 7.89866 26.7182 8.50587 26.7182C8.56659 26.7182 8.68797 26.7716 8.74869 26.8785C9.29518 27.8406 9.78096 28.6424 10.206 29.4442ZM6.98786 35.5376L3.10172 36.4997L4.19465 33.0789L6.98786 35.5376ZM42.0236 9.1327C42.0236 9.56031 41.7807 9.9879 41.295 10.4155C40.3234 11.2707 39.2912 12.1794 38.3196 13.0346L37.4088 13.8364C37.3481 13.8899 37.2874 13.8899 37.2874 13.9433L28.7865 6.46014C28.8472 6.40669 28.9079 6.35321 28.9687 6.29976L29.333 5.97906C30.4867 4.96349 31.6404 3.89447 32.8548 2.87889C33.3406 2.45128 33.8263 2.23747 34.3121 2.23747C34.7979 2.23747 35.3443 2.45128 35.7693 2.87889C37.6517 4.53588 39.5341 6.19288 41.3557 7.79642C41.7807 8.22403 42.0236 8.65164 42.0236 9.1327Z" fill="white" fill-opacity="0.59"/>
</svg>
