<svg width="45" height="40" viewBox="0 0 45 40" fill="none" xmlns="http://www.w3.org/2000/svg">
<path d="M44.7257 3.59275C44.54 3.15672 44.3543 2.77519 44.1068 2.44817C43.5497 1.68512 42.7451 1.24908 41.5691 1.03107C41.5072 1.03107 41.4453 0.976562 41.3834 0.976562H4.37111H4.30915C3.56643 1.19458 2.88563 1.35809 2.32859 1.73961C1.2764 2.50267 0.78125 3.48374 0.78125 4.57382C0.78125 15.093 0.78125 25.6123 0.78125 36.1315C0.78125 38.1482 2.63804 39.7288 4.86621 39.7288C16.8117 39.7288 28.7571 39.7288 40.7026 39.7288C42.7451 39.7288 44.3543 38.5297 44.7876 36.7855C44.7876 36.731 44.8494 36.6765 44.8494 36.622V4.02878C44.9113 3.91977 44.7876 3.75627 44.7257 3.59275ZM42.1881 35.859C42.1881 36.8946 41.6929 37.3851 40.5169 37.3851H5.36139C4.12352 37.3851 3.62834 36.9491 3.62834 35.859V4.95535C3.62834 3.86527 4.12352 3.42923 5.36139 3.42923H40.5169C41.6929 3.42923 42.1881 3.86527 42.1881 4.95535V35.859Z" fill="white" fill-opacity="0.59"/>
<path d="M40.0808 8.76504C40.0808 6.63939 38.2858 5.11328 35.872 5.11328H19.0989C16.0042 5.11328 12.8476 5.11328 9.75294 5.11328C8.26749 5.11328 7.09153 5.71282 6.28691 6.9119C5.4204 8.21999 5.54416 9.58258 5.79173 11.1632C6.1012 12.9618 7.71046 14.1064 10.0005 14.1064H27.6402C30.4254 14.1064 33.2106 14.1064 35.9958 14.1064C38.1621 14.1064 40.0189 12.5258 40.0808 10.6182C40.0808 10.0186 40.0808 9.36458 40.0808 8.76504ZM37.3575 10.4002C37.3575 11.1632 36.8005 11.6537 35.9339 11.6537C35.8721 11.6537 35.8101 11.6537 35.7482 11.6537H35.6864H31.0443C24.1123 11.6537 17.1182 11.6537 10.1862 11.6537C9.8148 11.6537 8.94835 11.6537 8.70078 10.9997C8.32942 10.0731 8.32942 9.09205 8.70078 8.16548C8.94835 7.51144 9.75294 7.51146 10.0624 7.51146C12.9714 7.51146 15.8804 7.51146 18.7894 7.51146H35.6245C36.8005 7.51146 37.2956 7.94747 37.2956 8.98304V10.4002H37.3575Z" fill="white" fill-opacity="0.59"/>
<path d="M40.2085 24.2481C40.2085 22.8855 40.2085 21.4684 40.2085 20.0513C40.2085 18.3617 38.3517 16.7266 36.4949 16.7266C34.5762 16.7266 32.5338 16.7266 30.3675 16.7266C28.325 16.7266 26.1587 16.7266 23.8067 16.7266C22.3213 16.7266 20.7121 17.8166 20.2788 19.0702C20.0932 19.5608 20.0312 20.1058 20.0312 20.5418C20.0312 24.0301 20.0312 27.5183 20.0312 31.7151C20.0312 33.7863 21.7643 35.3669 24.0543 35.4214C28.0155 35.4759 32.1005 35.4759 36.4949 35.4214C38.4755 35.4214 40.2705 33.7863 40.2705 31.9876C40.2705 30.625 40.2705 29.2624 40.2705 27.8998V26.1012C40.1467 25.5017 40.2085 24.9021 40.2085 24.2481ZM37.4233 31.6061C37.4233 32.4782 36.8663 32.9687 35.876 32.9687H24.24C23.2497 32.9687 22.6927 32.4782 22.6927 31.6606C22.6927 27.9544 22.6927 24.1936 22.6927 20.4873C22.6927 19.6153 23.2497 19.1792 24.24 19.1792H35.876C36.8663 19.1792 37.3614 19.6698 37.3614 20.5418V31.6061H37.4233Z" fill="white" fill-opacity="0.59"/>
<path d="M16.5117 26.1007V20.4323C16.5117 19.4512 16.1403 18.5246 15.3357 17.8161C14.5311 17.1075 13.4789 16.726 12.3648 16.7805C11.9315 16.7805 11.5602 16.7805 11.1269 16.7805C10.9412 16.7805 10.6936 16.7805 10.508 16.7805C10.2604 16.7805 10.0747 16.7805 9.82715 16.7805C7.47519 16.835 5.74219 18.3611 5.74219 20.4323C5.74219 24.193 5.74219 28.0083 5.74219 31.8236C5.74219 33.8402 7.41331 35.3663 9.76527 35.4208C10.7556 35.4753 11.7459 35.4208 12.8599 35.4208C14.7786 35.3663 16.5117 33.7857 16.5736 32.1506C16.6355 30.788 16.5736 29.3709 16.5736 28.0083C16.5117 27.2997 16.5117 26.7002 16.5117 26.1007ZM13.7884 31.6601C13.7884 32.4776 13.2313 32.9681 12.3029 32.9681H9.88903C9.08441 32.9681 8.5274 32.4776 8.5274 31.7691C8.5274 28.0083 8.5274 24.193 8.5274 20.4323C8.5274 19.7237 9.08441 19.2332 9.88903 19.2332H12.3029C13.2313 19.2332 13.7884 19.7237 13.7884 20.5413V31.6601ZM16.5117 26.1007V20.4323C16.5117 19.4512 16.1403 18.5246 15.3357 17.8161C14.5311 17.1075 13.4789 16.726 12.3648 16.7805C11.9315 16.7805 11.5602 16.7805 11.1269 16.7805C10.9412 16.7805 10.6936 16.7805 10.508 16.7805C10.2604 16.7805 10.0747 16.7805 9.82715 16.7805C7.47519 16.835 5.74219 18.3611 5.74219 20.4323C5.74219 24.193 5.74219 28.0083 5.74219 31.8236C5.74219 33.8402 7.41331 35.3663 9.76527 35.4208C10.7556 35.4753 11.7459 35.4208 12.8599 35.4208C14.7786 35.3663 16.5117 33.7857 16.5736 32.1506C16.6355 30.788 16.5736 29.3709 16.5736 28.0083C16.5117 27.2997 16.5117 26.7002 16.5117 26.1007ZM13.7884 31.6601C13.7884 32.4776 13.2313 32.9681 12.3029 32.9681H9.88903C9.08441 32.9681 8.5274 32.4776 8.5274 31.7691C8.5274 28.0083 8.5274 24.193 8.5274 20.4323C8.5274 19.7237 9.08441 19.2332 9.88903 19.2332H12.3029C13.2313 19.2332 13.7884 19.7237 13.7884 20.5413V31.6601ZM16.5117 26.1007V20.4323C16.5117 19.4512 16.1403 18.5246 15.3357 17.8161C14.5311 17.1075 13.4789 16.726 12.3648 16.7805C11.9315 16.7805 11.5602 16.7805 11.1269 16.7805C10.9412 16.7805 10.6936 16.7805 10.508 16.7805C10.2604 16.7805 10.0747 16.7805 9.82715 16.7805C7.47519 16.835 5.74219 18.3611 5.74219 20.4323C5.74219 24.193 5.74219 28.0083 5.74219 31.8236C5.74219 33.8402 7.41331 35.3663 9.76527 35.4208C10.7556 35.4753 11.7459 35.4208 12.8599 35.4208C14.7786 35.3663 16.5117 33.7857 16.5736 32.1506C16.6355 30.788 16.5736 29.3709 16.5736 28.0083C16.5117 27.2997 16.5117 26.7002 16.5117 26.1007ZM13.7884 31.6601C13.7884 32.4776 13.2313 32.9681 12.3029 32.9681H9.88903C9.08441 32.9681 8.5274 32.4776 8.5274 31.7691C8.5274 28.0083 8.5274 24.193 8.5274 20.4323C8.5274 19.7237 9.08441 19.2332 9.88903 19.2332H12.3029C13.2313 19.2332 13.7884 19.7237 13.7884 20.5413V31.6601ZM16.5117 26.1007V20.4323C16.5117 19.4512 16.1403 18.5246 15.3357 17.8161C14.5311 17.1075 13.4789 16.726 12.3648 16.7805C11.9315 16.7805 11.5602 16.7805 11.1269 16.7805C10.9412 16.7805 10.6936 16.7805 10.508 16.7805C10.2604 16.7805 10.0747 16.7805 9.82715 16.7805C7.47519 16.835 5.74219 18.3611 5.74219 20.4323C5.74219 24.193 5.74219 28.0083 5.74219 31.8236C5.74219 33.8402 7.41331 35.3663 9.76527 35.4208C10.7556 35.4753 11.7459 35.4208 12.8599 35.4208C14.7786 35.3663 16.5117 33.7857 16.5736 32.1506C16.6355 30.788 16.5736 29.3709 16.5736 28.0083C16.5117 27.2997 16.5117 26.7002 16.5117 26.1007ZM13.7884 31.6601C13.7884 32.4776 13.2313 32.9681 12.3029 32.9681H9.88903C9.08441 32.9681 8.5274 32.4776 8.5274 31.7691C8.5274 28.0083 8.5274 24.193 8.5274 20.4323C8.5274 19.7237 9.08441 19.2332 9.88903 19.2332H12.3029C13.2313 19.2332 13.7884 19.7237 13.7884 20.5413V31.6601Z" fill="white" fill-opacity="0.59"/>
</svg>
