<svg width="45" height="40" viewBox="0 0 45 40" fill="none" xmlns="http://www.w3.org/2000/svg">
<path d="M2.71037 21.8735C3.49222 21.8735 4.39434 21.8735 5.4769 21.8735C6.13846 21.8735 6.86018 21.8735 7.52175 21.8735C8.06303 21.8735 8.60426 21.8735 9.20569 21.8735C9.20569 23.7794 9.20569 25.6324 9.20569 27.5383C8.66441 27.5383 8.12316 27.5383 7.58188 27.5383C6.92031 27.5383 6.19859 27.5383 5.53703 27.5383C4.51461 27.5383 3.61249 27.5383 2.7705 27.5383V21.8735H2.71037ZM2.28934 19.7559C1.3872 19.7559 0.665541 20.0206 0.304688 20.8147C0.304688 23.4088 0.304688 26.003 0.304688 28.5971C0.665541 29.3912 1.32706 29.6559 2.28934 29.6559H2.34946C3.37188 29.6559 4.45448 29.6559 5.4769 29.6559C6.86017 29.6559 8.2434 29.6559 9.56652 29.6559C9.62667 29.6559 9.62671 29.6559 9.68685 29.6559C10.9498 29.6559 11.5512 29.1265 11.5512 28.0148C11.5512 25.7912 11.5512 23.6206 11.5512 21.3971C11.5512 20.2853 10.9498 19.7559 9.68685 19.7559C9.62671 19.7559 9.56654 19.7559 9.5064 19.7559C8.12313 19.7559 6.80004 19.7559 5.41677 19.7559C4.39436 19.7559 3.37189 19.7559 2.28934 19.7559Z" fill="white"/>
<path d="M30.9738 2.65868C30.9738 4.0881 30.9738 5.46459 30.9738 6.84107C30.9738 7.31754 30.9738 7.79401 30.9738 8.32342C29.8912 8.32342 28.8086 8.32342 27.7862 8.32342C26.7036 8.32342 25.6211 8.32342 24.5385 8.32342C24.5385 7.84695 24.5385 7.31754 24.5385 6.84107C24.5385 5.46459 24.5385 4.0881 24.5385 2.65868H30.9738V2.65868ZM32.1766 0.541016C29.2296 0.541016 26.2826 0.541016 23.3357 0.541016C22.4335 0.858665 22.1328 1.49398 22.1328 2.34104C22.193 4.51164 22.1328 6.68224 22.1328 8.85284C22.1328 9.91167 22.7342 10.4411 23.9371 10.4411C25.2001 10.4411 26.4631 10.4411 27.7261 10.4411C28.9891 10.4411 30.252 10.4411 31.515 10.4411C32.7178 10.4411 33.3192 9.91167 33.3192 8.85284C33.3192 6.68224 33.3192 4.51164 33.3192 2.34104C33.4395 1.44103 33.1389 0.858665 32.1766 0.541016Z" fill="white"/>
<path d="M9.14556 2.65672C9.14556 4.08614 9.14556 5.51556 9.14556 6.89204C9.14556 7.36852 9.14556 7.84498 9.14556 8.3744C8.60428 8.3744 8.00283 8.3744 7.46155 8.3744C6.79998 8.3744 6.13846 8.3744 5.4769 8.3744C4.39434 8.3744 3.55237 8.3744 2.71037 8.3744V2.70967H9.14556V2.65672ZM10.3484 0.539062C7.40144 0.539062 4.4545 0.539062 1.50753 0.539062C0.906109 0.750829 0.545256 1.06848 0.304688 1.59789C0.304688 4.19203 0.304688 6.78617 0.304688 9.3803C0.665541 10.1744 1.3872 10.4391 2.28934 10.4391H2.34946C3.37188 10.4391 4.39436 10.4391 5.41677 10.4391C6.7399 10.4391 8.063 10.4391 9.44627 10.4391C9.50641 10.4391 9.56658 10.4391 9.62672 10.4391C10.8897 10.4391 11.4911 9.90973 11.4911 8.79796C11.4911 6.6803 11.4911 4.50968 11.4911 2.39202C11.5513 1.49201 11.3107 0.856712 10.3484 0.539062Z" fill="white"/>
<path d="M16.8487 12.2388C17.9313 12.2388 19.0138 12.2388 20.0963 12.2388C20.0963 14.1446 20.0963 15.9976 20.0963 17.9035C19.0138 17.9035 17.9313 17.9035 16.8487 17.9035C15.7661 17.9035 14.6836 17.9035 13.601 17.9035C13.601 17.3211 13.601 16.6858 13.601 16.1035V15.0446V14.0387C13.601 13.4564 13.601 12.8741 13.601 12.2388C14.6836 12.2388 15.7661 12.2388 16.8487 12.2388ZM16.8487 10.1211C15.5256 10.1211 14.2626 10.1211 12.9395 10.1211C11.8569 10.1211 11.1953 10.7034 11.1953 11.6564C11.1953 12.7681 11.1953 13.9329 11.1953 15.0446C11.1953 16.2094 11.1953 17.3211 11.1953 18.4858C11.1953 19.4388 11.8569 20.0211 12.9395 20.0211C14.2626 20.0211 15.5256 20.0211 16.8487 20.0211C18.1718 20.0211 19.4348 20.0211 20.7579 20.0211C21.8405 20.0211 22.502 19.4388 22.502 18.4858C22.502 16.2094 22.502 13.9329 22.502 11.6564C22.502 10.7034 21.8405 10.1211 20.7579 10.1211C19.4348 10.1211 18.1718 10.1211 16.8487 10.1211Z" fill="white"/>
<path d="M27.8409 21.8716C28.8633 21.8716 29.9459 21.8716 30.9683 21.8716C30.9683 23.7775 30.9683 25.6304 30.9683 27.5363C30.6676 27.5363 30.3669 27.5363 30.0662 27.5363H28.8633H27.6605H26.5178H25.3751C25.0744 27.5363 24.8338 27.5363 24.5331 27.5363C24.5331 25.6304 24.5331 23.7775 24.5331 21.8716C25.6156 21.8716 26.7583 21.8716 27.8409 21.8716ZM27.8409 19.7539C26.5178 19.7539 25.1946 19.7539 23.9316 19.7539C22.7889 19.7539 22.1875 20.3363 22.1875 21.2892C22.1875 23.5657 22.1875 25.8422 22.1875 28.1187C22.1875 29.1246 22.8491 29.654 23.9316 29.654C24.4128 29.654 24.9541 29.654 25.4352 29.654C26.217 29.654 26.9989 29.654 27.7808 29.654C28.5626 29.654 29.3445 29.654 30.1263 29.654C30.6676 29.654 31.1487 29.654 31.69 29.654C32.8327 29.654 33.4341 29.1246 33.4341 28.1187C33.4341 25.8422 33.4341 23.5657 33.4341 21.2892C33.4341 20.2833 32.8327 19.7539 31.69 19.7539C30.3669 19.7539 29.1039 19.7539 27.8409 19.7539Z" fill="white"/>
<path d="M36.3218 12.2388H37.5247H38.7275H39.8101H41.0731C41.3738 12.2388 41.6745 12.2388 41.9752 12.2388C41.9752 14.1446 41.9752 15.9976 41.9752 17.9035C40.8927 17.9035 39.8703 17.9035 38.7877 17.9035C37.7052 17.9035 36.6226 17.9035 35.4799 17.9035C35.4799 16.1035 35.4799 14.2505 35.4799 12.2388C35.7205 12.2388 36.0211 12.2388 36.3218 12.2388ZM36.3218 10.1211C35.8407 10.1211 35.3596 10.1211 34.8183 10.1211C33.7357 10.1211 33.0742 10.6505 33.0742 11.6564C33.0742 13.9329 33.0742 16.2623 33.0742 18.5388C33.0742 19.4917 33.7357 20.0211 34.8183 20.0211C36.1414 20.0211 37.4646 20.0211 38.7877 20.0211C40.0507 20.0211 41.3738 20.0211 42.6368 20.0211C43.7193 20.0211 44.3208 19.4388 44.3208 18.4858C44.3208 16.2094 44.3208 13.9329 44.3208 11.6564C44.3208 10.6505 43.6592 10.1211 42.5766 10.1211C42.0955 10.1211 41.5542 10.1211 41.0731 10.1211C40.2912 10.1211 39.5094 10.1211 38.7275 10.1211C37.8855 10.1211 37.1037 10.1211 36.3218 10.1211Z" fill="white"/>
<path d="M16.7885 31.5083C17.8711 31.5083 18.9536 31.5083 20.0362 31.5083C20.0362 33.4142 20.0362 35.2671 20.0362 37.173C19.7355 37.173 19.4348 37.173 19.1341 37.173H17.9913H16.7885H15.5856H14.443C14.1423 37.173 13.9017 37.173 13.601 37.173C13.601 35.2671 13.601 33.4142 13.601 31.5083C14.6836 31.5083 15.7661 31.5083 16.7885 31.5083ZM16.7885 29.3906C15.5255 29.3906 14.2024 29.3906 12.9395 29.3906C11.8569 29.3906 11.1953 29.973 11.1953 30.9259C11.1953 33.2024 11.1953 35.4789 11.1953 37.7554C11.1953 38.7083 11.8569 39.2907 12.9395 39.2907C13.4206 39.2907 13.9619 39.2907 14.443 39.2907C15.2249 39.2907 16.0066 39.2907 16.7885 39.2907C17.5703 39.2907 18.3522 39.2907 19.1341 39.2907C19.6753 39.2907 20.1565 39.2907 20.6977 39.2907C21.7803 39.2907 22.4419 38.7083 22.4419 37.7554C22.4419 35.4789 22.4419 33.2024 22.4419 30.9259C22.4419 29.973 21.7803 29.3906 20.6977 29.3906C19.4347 29.3906 18.1116 29.3906 16.7885 29.3906Z" fill="white"/>
<path d="M38.6854 31.5122C39.768 31.5122 40.8505 31.5122 41.9331 31.5122C41.9331 32.1475 41.9331 32.7298 41.9331 33.3651V34.424V35.4828C41.9331 36.0652 41.9331 36.6475 41.9331 37.2299C40.9107 37.2299 39.8281 37.2299 38.8057 37.2299C37.7232 37.2299 36.6406 37.2299 35.4979 37.2299C35.4979 35.4299 35.4979 33.5769 35.4979 31.5652C36.5203 31.5122 37.6028 31.5122 38.6854 31.5122ZM38.6854 29.3945C37.4224 29.3945 36.0993 29.3945 34.8363 29.3945C33.7537 29.3945 33.1523 29.9769 33.1523 30.9298C33.1523 33.2063 33.1523 35.5358 33.1523 37.8122C33.1523 38.7652 33.8139 39.2946 34.8965 39.2946C36.2196 39.2946 37.5427 39.2946 38.8659 39.2946C40.1288 39.2946 41.452 39.2946 42.715 39.2946C43.7975 39.2946 44.3989 38.7122 44.3989 37.7593C44.3989 36.6475 44.3989 35.4828 44.3989 34.371C44.3989 33.2063 44.3989 32.0946 44.3989 30.9298C44.3989 29.9769 43.7975 29.3945 42.6548 29.3945C41.2715 29.3945 40.0085 29.3945 38.6854 29.3945Z" fill="white"/>
</svg>
