<svg width="45" height="40" viewBox="0 0 45 40" fill="none" xmlns="http://www.w3.org/2000/svg">
<path d="M44.8663 4.49001C44.8663 4.86582 44.8663 5.24161 44.8663 5.61741C44.8663 5.6711 44.8052 5.77848 44.8052 5.83217C44.4994 7.22801 43.582 8.30172 42.1754 8.94596C41.9308 9.05333 41.8084 9.21439 41.8084 9.48282C41.8084 16.5157 41.8084 23.6023 41.8084 30.6352C41.8084 30.9036 41.8696 31.011 42.1754 31.172C43.4597 31.7089 44.2548 32.6216 44.6829 33.8027C44.744 34.0174 44.8052 34.2859 44.8663 34.5006C44.8663 34.8764 44.8663 35.2522 44.8663 35.628C44.8663 35.6817 44.8052 35.7354 44.8052 35.8428C44.3771 37.507 43.2762 38.6344 41.3803 39.225C41.1357 39.2787 40.8298 39.386 40.5852 39.4397C40.1571 39.4397 39.729 39.4397 39.3009 39.4397C39.2397 39.4397 39.2397 39.386 39.1786 39.386C37.4661 39.1176 36.243 38.3123 35.4479 36.9165C35.3256 36.7017 35.1421 36.7017 34.9586 36.7017C26.8856 36.7017 18.8127 36.7017 10.7397 36.7017C10.4951 36.7017 10.3116 36.7554 10.1893 36.9701C9.63883 37.9365 8.78264 38.6881 7.62062 39.0639C7.25366 39.225 6.82555 39.2787 6.39744 39.386C5.96933 39.386 5.54116 39.386 5.11304 39.386C5.05188 39.386 4.99077 39.3324 4.92961 39.3324C2.72789 38.9565 1.19888 37.5607 0.831922 35.5743C0.526127 33.8564 1.627 32.031 3.52293 31.172C3.82872 31.0647 3.88987 30.9036 3.88987 30.6352C3.88987 23.6023 3.88987 16.5694 3.88987 9.48282C3.88987 9.21439 3.82872 9.05333 3.52293 8.94596C1.56584 8.08698 0.526187 6.26164 0.893141 4.27526C1.19893 2.44993 2.91132 1.0541 5.11304 0.731981C7.13129 0.46355 9.21072 1.4299 10.1893 3.09417C10.3116 3.3626 10.4951 3.41629 10.8009 3.41629C18.8127 3.41629 26.8245 3.41629 34.8975 3.41629C35.2033 3.41629 35.3867 3.30891 35.5091 3.09417C36.5488 1.4299 38.1388 0.624609 40.2794 0.731981C42.3588 0.839353 43.8266 1.85938 44.5605 3.57734C44.6828 3.89946 44.8052 4.22158 44.8663 4.49001ZM39.1786 30.6889C39.1786 30.5815 39.1786 30.4741 39.1786 30.4204C39.1786 23.4949 39.1786 16.6231 39.1786 9.69758C39.1786 9.42915 39.0563 9.37545 38.8116 9.32177C36.7934 8.89228 35.5702 7.76486 35.0809 5.99322C35.0197 5.72479 34.8974 5.67112 34.6528 5.67112C26.8245 5.67112 18.935 5.67112 11.1066 5.67112C10.8009 5.67112 10.7397 5.72479 10.6786 5.99322C10.1893 7.71118 8.96611 8.83861 7.00903 9.2681C6.64208 9.37547 6.51973 9.48284 6.51973 9.80496C6.51973 16.6231 6.51973 23.4412 6.51973 30.313C6.51973 30.4204 6.51973 30.5815 6.51973 30.6889C6.64205 30.7425 6.7032 30.7426 6.82552 30.7426C8.84377 31.1721 10.1281 32.2994 10.6173 34.0711C10.6785 34.3395 10.8009 34.3932 11.1066 34.3932C18.935 34.3932 26.7633 34.3932 34.5917 34.3932C34.8975 34.3932 35.0197 34.3395 35.0809 34.0711C35.5702 32.4068 36.7322 31.3331 38.6281 30.8499C38.8116 30.7962 38.9951 30.7425 39.1786 30.6889ZM8.17099 5.08055C8.17099 3.89945 7.13135 2.98681 5.78585 2.98681C4.50151 2.98681 3.40064 3.89945 3.40064 5.08055C3.40064 6.20796 4.44036 7.17432 5.78585 7.17432C7.13135 7.17432 8.17099 6.26164 8.17099 5.08055ZM39.9125 7.17432C41.258 7.17432 42.2977 6.26164 42.2977 5.08055C42.2977 3.95314 41.258 2.98681 39.9125 2.98681C38.6281 2.98681 37.5273 3.89945 37.5273 5.08055C37.5273 6.26164 38.567 7.17432 39.9125 7.17432ZM8.17099 35.0375C8.17099 33.8564 7.13135 32.9437 5.78585 32.9437C4.44036 32.9437 3.40064 33.8563 3.40064 34.9838C3.40064 36.1112 4.44036 37.0775 5.78585 37.0775C7.13135 37.1312 8.17099 36.2186 8.17099 35.0375ZM37.5273 35.0375C37.5273 36.2186 38.567 37.1312 39.9125 37.1312C41.1968 37.1312 42.2977 36.1649 42.2977 35.0375C42.2977 33.91 41.258 32.9437 39.9125 32.9437C38.6281 32.9437 37.5273 33.8564 37.5273 35.0375Z" fill="white" fill-opacity="0.59"/>
<path d="M12.5156 11.4688C19.4266 11.4688 26.3375 11.4688 33.2484 11.4688C33.2484 12.8646 33.2484 14.2068 33.2484 15.6026C32.3922 15.6026 31.5972 15.6026 30.6798 15.6026C30.6798 15.012 30.6798 14.3678 30.6798 13.7772C28.4781 13.7772 26.3375 13.7772 24.197 13.7772C24.197 18.0721 24.197 22.3133 24.197 26.6619C24.9309 26.6619 25.6036 26.6619 26.3375 26.6619C26.3375 27.4135 26.3375 28.1651 26.3375 28.9168C24.0135 28.9168 21.6894 28.9168 19.3654 28.9168C19.3654 28.2188 19.3654 27.4672 19.3654 26.6619C20.0993 26.6619 20.772 26.6619 21.5671 26.6619C21.5671 22.367 21.5671 18.0721 21.5671 13.7772C19.4265 13.7772 17.286 13.7772 15.0843 13.7772C15.0843 14.3678 15.0843 15.012 15.0843 15.6026C14.228 15.6026 13.3718 15.6026 12.5156 15.6026C12.5156 14.2068 12.5156 12.8646 12.5156 11.4688Z" fill="white" fill-opacity="0.59"/>
</svg>
