<svg width="45" height="39" viewBox="0 0 45 39" fill="none" xmlns="http://www.w3.org/2000/svg">
<path d="M43.2518 21.207C42.3455 21.207 41.6334 21.8339 41.6334 22.6317V34.1433C41.6334 35.1691 40.6624 36.0239 39.4971 36.0239H6.15818C4.99294 36.0239 4.02195 35.1691 4.02195 34.1433V22.6317C4.02195 21.8339 3.30985 21.207 2.40355 21.207C1.49725 21.207 0.785156 21.8339 0.785156 22.6317V34.1433C0.785156 36.7647 3.18033 38.8733 6.15818 38.8733H39.4971C42.475 38.8733 44.8702 36.7647 44.8702 34.1433V22.6317C44.8702 21.8339 44.1581 21.207 43.2518 21.207Z" fill="white" fill-opacity="0.59"/>
<path d="M14.8881 11.1197L21.8796 5.36398V28.3301C21.8796 29.1279 22.5916 29.7548 23.4979 29.7548C24.4042 29.7548 25.1163 29.1279 25.1163 28.3301V5.53494L32.043 11.6326C32.3667 11.9176 32.7552 12.0316 33.2083 12.0316C33.6615 12.0316 34.0499 11.9176 34.3736 11.6326C35.021 11.0628 35.021 10.151 34.3736 9.63807L24.6632 1.08989L23.5627 0.121094L12.6871 9.01118C12.0397 9.52407 11.9749 10.4359 12.6223 11.0058C13.2049 11.6326 14.2407 11.6896 14.8881 11.1197Z" fill="white" fill-opacity="0.59"/>
</svg>
